<svg xmlns="http://www.w3.org/2000/svg" width="612" height="612"><path d="M394.027 315.78a13.507 13.507 0 0 1 0-19.562l209.59-209.59A30.188 30.188 0 0 0 612 67.069a30.188 30.188 0 0 0-8.384-19.562L564.493 8.384A30.186 30.186 0 0 0 544.931 0c-8.383 0-13.972 2.794-19.56 8.384l-209.59 209.59a13.507 13.507 0 0 1-19.562 0L86.63 8.384A30.187 30.187 0 0 0 67.069 0a30.187 30.187 0 0 0-19.562 8.384L8.384 47.507A30.188 30.188 0 0 0 0 67.069 30.188 30.188 0 0 0 8.384 86.63l209.59 209.59a13.507 13.507 0 0 1 0 19.562L8.384 525.37a27.013 27.013 0 0 0 0 39.123l39.123 39.123A30.188 30.188 0 0 0 67.069 612a30.188 30.188 0 0 0 19.562-8.384l209.588-209.59a13.507 13.507 0 0 1 19.562 0l209.59 209.59a27.012 27.012 0 0 0 39.123 0l39.123-39.123a27.012 27.012 0 0 0 0-39.123z" fill-rule="evenodd"/></svg>