<svg xmlns="http://www.w3.org/2000/svg" viewBox="0 0 479.264 479.264"><path d="M479.264 194.077l-239.632-67.853L0 194.077l88.354 34.07V260.8c-7.648 3.007-13.084 10.447-13.084 19.15s5.436 16.142 13.084 19.15v53.942h15V299.1c7.648-3.007 13.084-10.447 13.084-19.15s-5.436-16.142-13.084-19.15v-26.87l18.142 6.996v56.496l2.764 2.25c34.124 27.794 74.113 41.7 114.102 41.7s79.98-13.896 114.103-41.7l2.764-2.25v-55.516l124.035-47.83zm-383.4 91.457a5.59 5.59 0 0 1-5.584-5.584 5.59 5.59 0 0 1 5.584-5.584 5.59 5.59 0 0 1 5.584 5.584 5.59 5.59 0 0 1-5.584 5.584zm143.778-143.72l192.282 54.445-192.282 74.15-114.067-43.988 115.584-23.905-3.037-14.69-138.4 28.624-52.36-20.192 192.282-54.445zM340.227 290.25c-61.35 48.03-142.38 48.032-203.73 0v-43.54l103.137 39.772 100.595-38.792v42.56z"/></svg>