<svg xmlns="http://www.w3.org/2000/svg" viewBox="0 0 512 512"><path d="M503.58 447.667h-28.396V349.17c0-22.047-17.936-39.983-39.983-39.983h-12.327V206.495c0-19.733-16.055-35.788-35.788-35.788h-99.762V88.15a8.42 8.42 0 0 0-8.418-8.419h-14.5V67.156c11.134-3.57 19.218-14.017 19.218-26.32 0-12.9-16.416-31.7-21.447-37.166A8.41 8.41 0 0 0 256 .956a8.42 8.42 0 0 0-6.19 2.713c-5.03 5.457-21.447 24.267-21.447 37.166 0 12.303 8.084 22.75 19.218 26.32v12.577h-14.5a8.42 8.42 0 0 0-8.419 8.419v82.556H124.9c-19.733 0-35.788 16.055-35.788 35.788v74.07a8.42 8.42 0 0 0 8.418 8.419 8.42 8.42 0 0 0 8.419-8.419v-74.07c0-10.45 8.502-18.95 18.95-18.95h262.175c10.45 0 18.95 8.502 18.95 18.95v102.692H76.797c-22.048 0-39.983 17.936-39.983 39.983v69.082a8.42 8.42 0 0 0 8.418 8.419 8.42 8.42 0 0 0 8.419-8.419V349.17c0-12.764 10.383-23.146 23.146-23.146H435.2c12.764 0 23.146 10.383 23.146 23.146v98.497H8.42a8.42 8.42 0 0 0-8.42 8.42c0 30.303 24.654 54.957 54.957 54.957h402.086c30.303 0 54.957-24.654 54.957-54.957a8.42 8.42 0 0 0-8.419-8.42zM245.2 40.834c0-2.897 4.664-10.666 10.8-18.466 6.135 7.8 10.8 15.57 10.8 18.466 0 5.955-4.845 10.8-10.8 10.8s-10.8-4.844-10.8-10.8zm25.287 129.873H241.5V96.57h28.977v74.138zm186.555 323.5H54.957c-18.128 0-33.34-12.72-37.183-29.702h476.452c-3.842 16.983-19.055 29.702-37.183 29.702zM377.72 212.133c-12.217-.2-20.606 8.066-27.354 14.72-6.1 6.024-10.16 9.66-14.526 9.543-4.103-.12-7.237-3.674-12-9.46-5.593-6.783-12.556-15.224-24.498-15.574-11.793-.35-19.563 7.357-26.415 14.15-6.34 6.286-10.567 10.102-15.818 10.108-5.2 0-9.285-3.824-15.4-10.12-6.456-6.636-14.48-14.884-26.67-14.884l-.23.001c-12.725.1-20.916 9.077-27.498 16.284-5.897 6.458-9.8 10.382-14.35 10.382h-.022c-4.55-.012-8.37-3.943-14.12-10.413-6.26-7.043-14.043-15.802-26.15-15.802h-.14a8.42 8.42 0 0 0-8.371 8.466 8.42 8.42 0 0 0 8.417 8.371 2.58 2.58 0 0 0 .088.001c4.245 0 7.964 3.84 13.574 10.15 6.348 7.142 14.246 16.03 26.66 16.066h.072c12.292 0 20.325-8.794 26.78-15.864 6.112-6.692 10.186-10.76 15.2-10.803 4.884-.02 8.76 3.693 14.7 9.788 6.597 6.78 14.804 15.216 27.468 15.216h.026c12.555-.01 20.93-8.316 27.66-15 5.804-5.755 9.664-9.28 13.85-9.28h.218c4.098.12 7.23 3.672 12 9.457 5.596 6.784 12.558 15.227 24.505 15.578 11.925.378 20.186-7.82 26.843-14.384 6.288-6.2 10.445-9.985 15.235-9.874 4.7.064 8.485-3.62 8.566-8.27s-3.623-8.486-8.273-8.568zm56.93 139.38c-12.574-.4-20.936 7.93-28.32 15.253-6.085 6.033-11.34 11.248-17.8 11.3-5.012-.1-8.605-3.842-14.035-9.913-6.203-6.93-13.922-15.558-26.936-15.787l-.492-.005c-12.762 0-21.683 8.797-28.87 15.883-5.894 5.812-10.978 10.814-16.474 10.67-4.83-.14-8.364-4.136-13.728-10.64-6.02-7.298-13.5-16.38-26.216-16.753-12.563-.4-20.937 7.93-28.32 15.253-6.105 6.055-11.378 11.283-17.866 11.3-6 0-10.582-4.276-17.43-11.313-6.96-7.154-15.6-16.045-28.616-16.045l-.244.001c-13.577.116-22.4 9.788-29.5 17.56-6.6 7.226-10.992 11.616-16.288 11.616h-.027c-5.308-.015-9.6-4.416-16.04-11.66-6.77-7.617-15.168-17.058-28.17-17.024a8.42 8.42 0 0 0-8.371 8.466 8.42 8.42 0 0 0 8.417 8.371.46.46 0 0 0 .051.002c5.022-.072 9.186 4.278 15.5 11.372 6.84 7.696 15.353 17.275 28.577 17.312h.08c13.096-.001 21.394-9.084 28.715-17.1 6.832-7.48 11.4-12.027 17.22-12.078h.093c5.5 0 9.934 4.144 16.555 10.95 7.113 7.312 15.965 16.4 29.486 16.4h.027c13.4-.012 22.446-8.972 29.706-16.17 6.6-6.555 10.954-10.513 15.973-10.38 4.826.14 8.357 4.134 13.72 10.635 6.02 7.3 13.512 16.385 26.223 16.757 12.696.394 21.24-8.066 28.8-15.5 6.06-5.976 11.276-11.172 17.24-11.033 5.4.094 9.093 3.93 14.685 10.18 6.1 6.83 13.717 15.33 26.396 15.52l.135.001c13.4-.012 22.446-8.972 29.706-16.17 6.6-6.555 10.97-10.497 15.973-10.38a8.41 8.41 0 0 0 8.66-8.168 8.42 8.42 0 0 0-8.168-8.659z"/></svg>