<svg xmlns="http://www.w3.org/2000/svg" viewBox="0 0 407.686 407.686"><path d="M400.186 92.376h-17.95V75.392a7.5 7.5 0 0 0-6.625-7.449l-104-12.214c-23.323-2.74-46.67 1.16-67.77 11.282a122.97 122.97 0 0 0-67.769-11.282l-104 12.214a7.5 7.5 0 0 0-6.625 7.449v16.984H7.5a7.5 7.5 0 0 0-7.5 7.5v245.432a7.5 7.5 0 0 0 7.5 7.5h392.686a7.5 7.5 0 0 0 7.5-7.5V99.876a7.5 7.5 0 0 0-7.5-7.5zM269.86 70.627l97.374 11.436V305.12L271.6 293.9a122.95 122.95 0 0 0-60.27 7.993V80.065c18.27-8.535 38.406-11.8 58.52-9.438zm-132.037 0a108.04 108.04 0 0 1 58.52 9.438v221.82c-14.584-5.848-30.068-8.847-45.758-8.847a124.76 124.76 0 0 0-14.51.85L40.45 305.12V82.063l97.375-11.436zm254.862 267.18H15v-230.43h10.45v206.176a7.5 7.5 0 0 0 8.375 7.449l104-12.214a108.07 108.07 0 0 1 62.567 11.424c2.164 1.122 4.738 1.122 6.902 0 19.318-10.012 40.95-13.963 62.567-11.424l104 12.214a7.56 7.56 0 0 0 .875.05 7.5 7.5 0 0 0 7.5-7.5V107.376h10.45v230.432zm-164.07-224.93a108.07 108.07 0 0 1 41.107-3.056l78.086 9.18a7.58 7.58 0 0 0 .885.052 7.49 7.49 0 0 0 7.44-6.626 7.5 7.5 0 0 0-6.574-8.323l-78.086-9.168a122.95 122.95 0 0 0-46.788 3.479 7.5 7.5 0 0 0-5.271 9.204 7.5 7.5 0 0 0 9.203 5.27zm-169.9 6.165a7.57 7.57 0 0 0 .885-.052l78.078-9.167c13.813-1.6 27.808-.558 41.1 3.065 3.995 1.087 8.12-1.268 9.207-5.266a7.5 7.5 0 0 0-5.266-9.207c-15.144-4.125-31.062-5.323-46.794-3.5l-78.085 9.168a7.5 7.5 0 0 0-6.574 8.323c.45 3.817 3.7 6.626 7.44 6.626zm169.902 28.238c13.442-3.652 27.274-4.68 41.107-3.056l78.085 9.168a7.58 7.58 0 0 0 .885.052 7.49 7.49 0 0 0 7.44-6.626 7.5 7.5 0 0 0-6.574-8.323l-78.086-9.168a122.94 122.94 0 0 0-46.788 3.48 7.5 7.5 0 0 0-5.271 9.204 7.5 7.5 0 0 0 9.203 5.27zm-169.903 6.162a7.57 7.57 0 0 0 .885-.052l78.078-9.167c13.804-1.608 27.807-.558 41.1 3.065 3.995 1.087 8.12-1.268 9.207-5.266a7.5 7.5 0 0 0-5.266-9.207c-15.146-4.125-31.07-5.323-46.794-3.5l-78.085 9.168a7.5 7.5 0 0 0-6.574 8.323c.45 3.817 3.7 6.626 7.44 6.626zm169.902 28.238c13.442-3.652 27.274-4.68 41.107-3.056l78.085 9.168a7.58 7.58 0 0 0 .885.052 7.49 7.49 0 0 0 7.44-6.626 7.5 7.5 0 0 0-6.574-8.323l-78.086-9.168a122.96 122.96 0 0 0-46.788 3.48 7.5 7.5 0 0 0-5.271 9.204 7.5 7.5 0 0 0 9.203 5.27zm-169.902 6.163a7.57 7.57 0 0 0 .885-.052l78.078-9.167c13.803-1.608 27.807-.558 41.1 3.065a7.5 7.5 0 1 0 3.941-14.473 123.76 123.76 0 0 0-46.794-3.49l-78.085 9.168a7.5 7.5 0 0 0-6.574 8.323c.45 3.818 3.7 6.627 7.44 6.627zm169.902 28.237a108.04 108.04 0 0 1 41.107-3.056l78.085 9.168a7.58 7.58 0 0 0 .885.052 7.49 7.49 0 0 0 7.44-6.626 7.5 7.5 0 0 0-6.574-8.323l-78.086-9.168a122.96 122.96 0 0 0-46.788 3.48 7.5 7.5 0 0 0-5.271 9.204 7.5 7.5 0 0 0 9.203 5.27zm-169.902 6.163a7.57 7.57 0 0 0 .885-.052l78.078-9.167a108.77 108.77 0 0 1 41.109 3.065c3.995 1.087 8.12-1.268 9.207-5.266a7.5 7.5 0 0 0-5.266-9.207c-15.145-4.125-31.072-5.323-46.794-3.5l-78.085 9.168a7.5 7.5 0 0 0-6.574 8.323c.45 3.817 3.7 6.626 7.44 6.626zm290.846 19.45l-78.086-9.168a122.97 122.97 0 0 0-46.788 3.48 7.5 7.5 0 1 0 3.932 14.475 108.11 108.11 0 0 1 41.107-3.056l78.085 9.168a7.58 7.58 0 0 0 .885.052 7.49 7.49 0 0 0 7.44-6.626c.482-4.114-2.46-7.84-6.574-8.324zm-290.846 14.95a7.57 7.57 0 0 0 .885-.052l78.078-9.167c13.804-1.608 27.807-.558 41.1 3.065a7.5 7.5 0 1 0 3.941-14.473c-15.146-4.125-31.07-5.323-46.794-3.5l-78.085 9.168a7.5 7.5 0 0 0-6.574 8.323c.45 3.817 3.7 6.626 7.44 6.626z"/></svg>