<svg xmlns="http://www.w3.org/2000/svg" viewBox="0 0 455.286 455.286"><path d="M454.055 232.617a8.01 8.01 0 0 0-2.798-2.798h.48L157.977 51.58a8 8 0 0 0-8 0l-145.52 77.6a8 8 0 0 0-.72 13.92l294.16 182.56a8 8 0 0 0 4.24 1.2c1.374-.004 2.724-.362 3.92-1.04l145.2-82.24a8 8 0 0 0 2.798-10.962zM302.617 309.82l-278.4-173.04 129.36-69.2 277.92 168.88-128.88 73.36zm151.6-38.24a8.03 8.03 0 0 0-10.96-2.96h.48l-141.04 80-290.32-180.24a8.06 8.06 0 0 0-11.12 2.48 8.06 8.06 0 0 0 2.48 11.12l294.16 182.56a8 8 0 0 0 4.24 1.2c1.374-.004 2.724-.362 3.92-1.04l145.2-82.16a8.03 8.03 0 0 0 2.96-10.96zm-1.717 38.595a8 8 0 0 0-8.774-2.596l-141.44 80-289.92-180.32a8.06 8.06 0 0 0-11.12 2.48 8.06 8.06 0 0 0 2.48 11.12l294.16 182.72a8 8 0 0 0 4.24 1.2c1.374-.004 2.724-.362 3.92-1.04l145.2-82.32a8 8 0 0 0 1.254-11.244zM273.7 145.693a8 8 0 0 0-11.246-1.232c-.218.175-.427.362-.626.56l-8.56 8a36.38 36.38 0 0 0-8.96-5.92c-4.262-2.007-9-2.783-13.68-2.24a20.48 20.48 0 0 0-11.12 5.04 17.44 17.44 0 0 0-6 10.64 28.32 28.32 0 0 0 1.36 12.96 93.53 93.53 0 0 0 4.16 10.08l-16 14.32a14.83 14.83 0 0 1-.48-1.68c-.603-3.853-.2-7.796 1.2-11.44.656-1.716 1.034-3.525 1.12-5.36a7.04 7.04 0 0 0-2.08-4.72c-1.435-1.775-3.56-2.852-5.84-2.96a8 8 0 0 0-5.92 2.08 16.96 16.96 0 0 0-5.04 9.52c-.788 4.8-.3 9.704 1.44 14.24a40.95 40.95 0 0 0 4.88 9.6l-9.2 8c-3.314 2.922-3.63 7.978-.7 11.292a8 8 0 0 0 6.069 2.708l-.16.24a8 8 0 0 0 5.36-2l9.04-8c3.005 2.826 6.367 5.247 10 7.2a24 24 0 0 0 28.48-3.6 16.88 16.88 0 0 0 5.36-8.96 25.85 25.85 0 0 0-.4-11.84c-1.444-5.33-3.54-10.462-6.24-15.28v-.48l13.28-11.92a18.63 18.63 0 0 1 0 6.56 35.35 35.35 0 0 0-.64 7.36 8 8 0 0 0 2.24 5.2 9.36 9.36 0 0 0 6.16 3.52 8 8 0 0 0 5.84-2.08 12 12 0 0 0 3.44-6c.604-2.93.604-5.95 0-8.88-.667-3.778-1.937-7.424-3.76-10.8a48.97 48.97 0 0 0-2.72-4.48l8.72-8a8 8 0 0 0 1.232-11.247zm-49.152 65.086a8 8 0 0 1-7.28 1.2 14.33 14.33 0 0 1-4.48-2l13.52-11.76c.582 1.48 1.036 3.004 1.36 4.56a8.48 8.48 0 0 1-3.12 8zm7.92-39.2c-.375-1.224-.616-2.484-.72-3.76a6.32 6.32 0 0 1 2.08-5.84 6.88 6.88 0 0 1 6.8-1.2 13.9 13.9 0 0 1 2.32 1.04l-10.48 9.76z"/></svg>