<svg xmlns="http://www.w3.org/2000/svg" width="498" height="512" viewBox="0 0 497.938 512"><path d="M390.626 78.378a12.356 12.356 0 0 0 12.352-12.358V27.027a27.044 27.044 0 0 0-27-27.027h-261.3a12.354 12.354 0 0 0-8.734 3.62L3.618 106A12.363 12.363 0 0 0 0 114.733v370.24A27.053 27.053 0 0 0 27.013 512h348.964a27.044 27.044 0 0 0 27-27.027V296.29a12.351 12.351 0 1 0-24.7 0v188.684a2.307 2.307 0 0 1-2.3 2.311H27.014a2.313 2.313 0 0 1-2.31-2.311v-357.88h75.32a27.04 27.04 0 0 0 27-27.017v-75.36h248.95a2.306 2.306 0 0 1 2.3 2.311V66.02a12.356 12.356 0 0 0 12.351 12.358zm-288.3 21.7a2.3 2.3 0 0 1-2.3 2.3H42.178L102.324 42.2v57.88zm383.38.322l-14.534-14.543a41.829 41.829 0 0 0-59.107 0L296.7 201.28H96.6a12.358 12.358 0 0 0 0 24.72H272l-74.34 74.38H96.6a12.358 12.358 0 0 0 0 24.716h76.353l-.2.2a12.359 12.359 0 0 0-3.167 5.433L150.51 399.47H96.6a12.358 12.358 0 0 0 0 24.716h63.3l3.1-.4c.065-.017 77.957-21.642 77.957-21.642a12.347 12.347 0 0 0 5.43-3.169l239.32-239.435a41.879 41.879 0 0 0-.001-59.13zM177.644 394.073l10.082-36.326 26.227 26.24zm60.015-21.32l-38.7-38.72L396.5 136.383l38.7 38.72zm230.578-230.7l-15.563 15.57-38.7-38.722 15.563-15.57a17.1 17.1 0 0 1 24.168 0l14.534 14.54a17.125 17.125 0 0 1-.002 24.183z" fill="#fff" fill-rule="evenodd"/></svg>