<svg xmlns="http://www.w3.org/2000/svg" viewBox="0 -1 511.999 511"><path d="M380.6 204.04l30.242-1.918a70.83 70.83 0 0 0 52.797-30.82l23.78-34.9c20.7-30.375 28.72-67.062 22.574-103.3a31.88 31.88 0 0 0-10.246-18.461c-5.402-4.8-12.348-7.617-19.56-7.96-36.727-1.758-72.176 10.605-99.848 34.797l-31.8 27.793a70.82 70.82 0 0 0-24.27 56.113c.004.05.004.105.008.16l1.715 30.1c.668 11.73-3.633 23.305-11.777 31.734L65.867 442.508c-6.648 6.934-10.082 16.445-9.664 26.785.46 11.383 5.684 22.563 13.973 29.9 7.488 6.637 17.78 10.418 28.07 10.418a40.36 40.36 0 0 0 3.3-.133c10.316-.824 19.352-5.37 25.47-12.848L350.48 219.555a42.35 42.35 0 0 1 30.1-15.516zm-42.04 5.86L115.105 486.96c-3.414 4.172-8.664 6.742-14.78 7.23-7.277.582-14.738-1.84-19.965-6.473s-8.523-11.754-8.816-19.047c-.25-6.13 1.668-11.648 5.363-15.5l248.33-255.1c11.133-11.52 16.992-27.297 16.086-43.3l-1.715-30.012c-.582-16.832 6.352-32.836 19.035-43.926l31.8-27.793c24.672-21.566 56.3-32.578 89.016-31.023a16.47 16.47 0 0 1 15.402 13.656c5.477 32.3-1.672 65.012-20.125 92.1l-23.78 34.895a55.55 55.55 0 0 1-41.336 24.163l-30 1.898c-15.984 1.016-30.945 8.727-41.066 21.18zm159.26 230.67L331.3 288.902a7.68 7.68 0 0 0-10.844.504 7.68 7.68 0 0 0 .508 10.844L487.44 451.883c3.96 3.66 6.207 9.055 6.328 15.188.145 7.297-2.72 14.598-7.66 19.54s-12.227 7.8-19.54 7.66c-6.133-.12-11.527-2.367-15.148-6.285L303.04 325.078a7.68 7.68 0 0 0-10.844-.508 7.68 7.68 0 0 0-.504 10.844L440.1 498.36c6.523 7.055 15.813 11.055 26.16 11.258l.805.008c11.12 0 22.242-4.512 29.887-12.16 7.836-7.836 12.38-19.3 12.152-30.695-.203-10.348-4.2-19.637-11.293-26.2zM92.6 202.586a71.07 71.07 0 0 0 46.473 18.789l.16.004 30.14.094a42.34 42.34 0 0 1 30.97 13.66l13.277 14.574a7.65 7.65 0 0 0 5.676 2.508 7.64 7.64 0 0 0 5.164-2c3.137-2.855 3.363-7.7.508-10.844l-13.297-14.594a57.75 57.75 0 0 0-42.246-18.656l-30.06-.094a55.81 55.81 0 0 1-36.02-14.4L16.008 87.78a2.64 2.64 0 0 1 .156-3.582 2.62 2.62 0 0 1 1.871-.773 2.65 2.65 0 0 1 1.875.773L99.418 163.7c7.86 7.86 20.648 7.86 28.508-.004l35.28-35.28c7.86-7.86 7.86-20.648 0-28.508L83.7 20.4a2.66 2.66 0 0 1 0-3.746 2.64 2.64 0 0 1 3.582-.156l103.836 87.352a55.74 55.74 0 0 1 14.414 36.016l.1 30.063c.055 16.016 6.855 31.414 18.676 42.266l14.227 12.957a7.68 7.68 0 0 0 10.844-.504 7.68 7.68 0 0 0-.508-10.844l-14.203-12.937c-8.66-7.945-13.645-19.242-13.684-30.988l-.094-30.14c0-.055 0-.1-.004-.164a71.07 71.07 0 0 0-18.789-46.473 7.67 7.67 0 0 0-.703-.676L97.16 4.762a17.89 17.89 0 0 0-24.312 1.047c-7.02 7.02-7.02 18.438 0 25.453l79.508 79.512c1.875 1.875 1.875 4.926 0 6.8l-3.918 3.914-88.613-88.6a7.67 7.67 0 0 0-10.852 0c-2.996 2.996-2.996 7.855 0 10.852l88.613 88.613-5.742 5.738-88.613-88.6c-2.996-2.996-7.855-2.996-10.852 0a7.67 7.67 0 0 0 0 10.852l88.6 88.613-3.914 3.918c-1.875 1.875-4.926 1.875-6.8 0L30.762 73.348a17.88 17.88 0 0 0-12.727-5.273 17.88 17.88 0 0 0-12.727 5.273 17.9 17.9 0 0 0-1.047 24.316l87.676 104.22a7.2 7.2 0 0 0 .672.703zm0 0"/></svg>