<svg xmlns="http://www.w3.org/2000/svg" width="556" height="612" viewBox="0 0 555.969 611.5"><path d="M556.944 188.54c-.005-22.585-18.3-40.904-40.875-40.95H41.27C18.574 147.526.1 165.845-.006 188.54v381.338C-.006 592.71 18.894 612 41.27 612h474.8c22.54 0 40.875-18.9 40.875-42.122v-86.835c0-10.16-6.846-25.275-25.706-25.275H383.004c-6.726 0-12.852-5.81-12.852-12.193V312.843c0-6.81 6.67-11.023 12.852-11.023h148.234c18.86 0 25.706-14.86 25.706-24.85v-88.43zM416.49 330.955c-7.606.008-13.77 6.17-13.778 13.777v68.412c.01 7.606 6.172 13.77 13.778 13.778H541.45c7.606-.008 13.77-6.172 13.78-13.778v-68.412c-.01-7.606-6.173-13.77-13.78-13.777H416.49zm52.16 47.983a26.67 26.67 0 0 1 45.522-18.863 26.67 26.67 0 0 1-18.855 45.525c-14.718-.018-26.646-11.944-26.667-26.662zM43.97 108.175H507.83c13.125 0 23.407-10.537 23.407-23.99V21.75c0-12.4-9.092-21.75-21.147-21.75-1.243.002-2.483.103-3.7.3L42.276 74.4C31.5 76.13 19.9 82.5 19.9 92.453c0 9.258 9.896 15.722 24.068 15.722z" fill="#fff" fill-rule="evenodd"/></svg>