<svg xmlns="http://www.w3.org/2000/svg" viewBox="0 0 507.458 507.458" width="512" height="512"><path d="M503.842 230.376l-45.68-42.58V64.63h9.978a7.5 7.5 0 0 0 7.5-7.5V9.958a7.5 7.5 0 0 0-7.5-7.5H339.125a7.5 7.5 0 0 0-7.5 7.5V57.13a7.5 7.5 0 0 0 7.5 7.5h9.977v21.514l-90.26-84.13a7.5 7.5 0 0 0-10.227 0l-245 228.363a7.5 7.5 0 0 0 5.114 12.986h47.237v106.072a7.5 7.5 0 0 0 15 0V243.363H436.5v249.095H215.672V319.5a7.5 7.5 0 0 0-7.5-7.5H106.526a7.5 7.5 0 0 0-7.5 7.5v172.967h-28.06v-113.02a7.5 7.5 0 0 0-15 0v120.52a7.5 7.5 0 0 0 7.5 7.5H444a7.5 7.5 0 0 0 7.5-7.5V243.363h47.238a7.5 7.5 0 0 0 5.114-12.987zM114.026 492.458V327h86.646v165.467h-86.646zm232.6-475H460.64V49.63h-9.93c-.016 0-.032-.002-.048-.002l-104.036.002V17.458zm17.477 47.172h79.06v109.187l-79.06-73.7V64.63zm79.9 163.733H27.775l225.954-210.6 225.954 210.6H444zM183.172 337h-51.646a7.5 7.5 0 0 0-7.5 7.5v130.467a7.5 7.5 0 0 0 7.5 7.5h51.646a7.5 7.5 0 0 0 7.5-7.5V344.5a7.5 7.5 0 0 0-7.5-7.5zm-7.5 15v74.7h-36.646v-15.3h8.2a7.5 7.5 0 1 0 0-15h-8.2V352h36.646zm-36.646 115.467V441.68h36.646v25.778h-36.646zm267.588-17.103a7.5 7.5 0 0 0 7.5-7.5V319.5a7.5 7.5 0 0 0-7.5-7.5H247.33a7.5 7.5 0 0 0-7.5 7.5v123.373a7.5 7.5 0 0 0 7.5 7.5h159.283zm-7.5-15h-45.32V327h45.32v108.373zM254.83 327h83.962v108.373H254.83V327zM75.402 200.907a7.5 7.5 0 0 0 7.5 7.5h341.65a7.5 7.5 0 1 0 0-15H82.902a7.5 7.5 0 0 0-7.5 7.5zm47.7-29.97h158.33a7.5 7.5 0 1 0 0-15h-158.33a7.5 7.5 0 1 0 0 15zm180.832-7.5a7.5 7.5 0 0 0 7.5 7.5h72.928a7.5 7.5 0 1 0 0-15h-72.928a7.5 7.5 0 0 0-7.5 7.5zm-148.132-37.47a7.5 7.5 0 0 0 7.5 7.5h180.86a7.5 7.5 0 1 0 0-15h-180.86a7.5 7.5 0 0 0-7.5 7.5zM196 88.497a7.5 7.5 0 0 0 7.5 7.5h100.46a7.5 7.5 0 1 0 0-15H203.5a7.5 7.5 0 0 0-7.5 7.5zm40.2-37.47a7.5 7.5 0 0 0 7.5 7.5h20.06a7.5 7.5 0 1 0 0-15H243.7a7.5 7.5 0 0 0-7.5 7.5z"/></svg>