<svg xmlns="http://www.w3.org/2000/svg" viewBox="0 0 512 512"><path d="M157.152 315.12c-24.262 0-44 19.738-44 44s19.738 44 44 44 44-19.738 44-44-19.738-44-44-44zm0 68c-13.233 0-24-10.767-24-24s10.767-24 24-24 24 10.767 24 24-10.767 24-24 24zM457.25 108.884H406a10 10 0 0 0 0 20h51.25c16 0 29.484 10.86 33.515 25.6H406a10 10 0 0 0-10 10V254.4a10 10 0 0 0 10 10h86v84.914h-29.342c-4.474-19.55-21.996-34.183-42.882-34.183s-38.408 14.633-42.882 34.183H376v-184.74a10 10 0 0 0-10-10h-80a10 10 0 0 0-10 10v80.322H90.333a10 10 0 1 0 0 20H276V349.3h-51a10 10 0 1 0 0 20h151.978c4.608 19.366 22.04 33.817 42.798 33.817s38.2-14.45 42.798-33.817H502a10 10 0 0 0 10-10V163.633c0-30.2-24.56-54.75-54.75-54.75zM356 251.973h-6.32a10 10 0 1 0 0 20H356V349.3h-60V174.56h60v77.4zm63.775 131.146c-13.233 0-24-10.767-24-24s10.767-24 24-24 24 10.767 24 24-10.766 24-24 24zM492 244.388h-76v-69.915h76v69.915zM373.07 111.8c-1.86-1.86-4.44-2.93-7.07-2.93s-5.2 1.07-7.07 2.93-2.93 4.44-2.93 7.07 1.07 5.2 2.93 7.07 4.44 2.93 7.07 2.93 5.2-1.07 7.07-2.93 2.93-4.44 2.93-7.07-1.07-5.2-2.93-7.07zM326 108.884H54.75c-27.414 0-50.183 20.255-54.137 46.585a9.92 9.92 0 0 0-.612 3.415V359.3a10 10 0 0 0 10 10h75.28a10 10 0 0 0 0-19.999H20V224.884h34a10 10 0 0 0 10-10v-56a10 10 0 0 0-10-10H23.294c5.558-11.806 17.564-20 31.454-20H326a10 10 0 0 0 0-20zm-282 60v36H20v-36h24zM61.07 247.8c-1.86-1.86-4.44-2.93-7.07-2.93s-5.2 1.07-7.07 2.93-2.93 4.44-2.93 7.07a10.06 10.06 0 0 0 2.93 7.07c1.86 1.87 4.44 2.93 7.07 2.93a10.05 10.05 0 0 0 7.07-2.93c1.86-1.86 2.93-4.44 2.93-7.07s-1.07-5.2-2.93-7.07zM246 148.884h-56a10 10 0 0 0-10 10v56a10 10 0 0 0 10 10h56a10 10 0 0 0 10-10v-56a10 10 0 0 0-10-10zm-10 56h-36v-36h36v36zm-86-56H94a10 10 0 0 0-10 10v56a10 10 0 0 0 10 10h56a10 10 0 0 0 10-10v-56a10 10 0 0 0-10-10zm-10 56h-36v-36h36v36z"/></svg>