<svg xmlns="http://www.w3.org/2000/svg" viewBox="0 0 512.001 512.001"><path d="M268.243 244.62l-.875-.876c-22.65-22.65-61.613-32.593-109.714-28.008-41.4 3.95-84.736 18.156-115.898 38-33.8 21.524-47.78 46.122-39.368 69.266 9.24 25.42 27.7 46.5 54.83 62.684 7.097 4.23 14.003 8.966 20.53 14.08a9.35 9.35 0 0 0 11.535-14.717c-7.148-5.604-14.716-10.793-22.493-15.427-23.344-13.9-39.1-31.744-46.83-53-7.148-19.663 19.884-39.492 31.837-47.104 59.464-37.866 162.983-51.905 202.346-12.542l.875.875c39.363 39.363 25.325 142.88-12.542 202.346-7.612 11.954-27.446 38.988-47.103 31.837-21.266-7.73-39.1-23.486-53-46.83-8.284-13.904-18.193-26.912-29.453-38.668a9.35 9.35 0 0 0-13.503 12.935c10.282 10.735 19.33 22.614 26.892 35.303 16.172 27.143 37.263 45.6 62.684 54.833 4.396 1.598 8.842 2.387 13.313 2.387 19.063 0 38.518-14.376 55.953-41.755 19.844-31.162 34.05-74.488 38-115.898 4.6-48.1-5.358-87.063-28.007-109.713zm89.7-196.85c-8.887-19.74-24.93-34.84-45.174-42.515-37.893-14.37-80.922 1.68-100.086 37.324a9.35 9.35 0 1 0 16.47 8.854c14.736-27.4 47.834-39.745 76.987-28.693 15.573 5.904 27.916 17.52 34.752 32.706s7.35 32.127 1.446 47.7c-6.77 17.86-24.25 41.362-43.496 58.483-21.272 18.925-40.858 26.977-53.737 22.098-23.576-8.938-31.718-62.96-24.28-105.853a9.35 9.35 0 0 0-7.614-10.809 9.35 9.35 0 0 0-10.809 7.614c-7.626 43.97-1.474 112.297 36.075 126.532 4.564 1.73 9.438 2.585 14.572 2.585 17.247 0 37.382-9.655 58.223-28.196 21.297-18.946 40.808-45.4 48.55-65.825 7.675-20.245 7.007-42.266-1.88-62.006zm-205.48 35.635C145.82 50.52 116.683 26.65 83.178 26.65a71.26 71.26 0 0 0-14.072 1.412c-38.24 7.723-63.066 45.116-55.344 83.356 3.548 17.56 15.212 41.06 29.717 59.873 10.367 13.446 31.255 36.002 54.682 36.005 2.37 0 4.726-.234 7.006-.694 18.376-3.712 33.33-22.43 42.102-52.706 6.957-24.002 8.995-51.672 5.194-70.5zM129.3 148.7c-6.545 22.585-16.954 37.382-27.844 39.58a16.78 16.78 0 0 1-3.3.324c-25.16-.003-60.074-51.177-66.074-80.88C26.4 79.584 44.676 52.073 72.8 46.4c3.424-.692 6.913-1.042 10.37-1.042 24.64 0 46.07 17.56 50.956 41.757 3.15 15.6 1.166 40.915-4.824 61.584zm377.423 50.52c-11.87-31.305-42.33-52.337-75.8-52.337-9.8 0-19.473 1.778-28.72 5.283-20.426 7.743-46.88 27.255-65.825 48.55-24.06 27.044-33.155 52.896-25.6 72.795 13.695 36.123 73.75 38.93 91.83 38.93 21.68 0 42.482-3.173 57.07-8.703 41.788-15.843 62.897-62.73 47.054-104.52zm-53.683 87.035c-12.37 4.7-31.225 7.488-50.442 7.488-38.977 0-68.16-10.544-74.346-26.86-4.882-12.878 3.173-32.463 22.098-53.737 17.12-19.245 40.624-36.725 58.483-43.496a62.12 62.12 0 0 1 22.1-4.07c25.748 0 49.183 16.18 58.314 40.267 12.188 32.15-4.05 68.22-36.198 80.408zm20.478 103.485c-10.453-15.745-26.4-26.476-44.936-30.217-6.12-1.237-13.267-1.864-21.24-1.864-35.58 0-94.724 13.346-101.957 49.16-8.092 40.064 57.806 83.854 95.183 91.403a71.18 71.18 0 0 0 14.072 1.412c33.504 0 62.643-23.87 69.286-56.755a70.28 70.28 0 0 0-10.408-53.138zm-7.922 49.437c-4.887 24.197-26.317 41.758-50.956 41.758-3.457 0-6.945-.35-10.37-1.042-31.775-6.418-85.564-44.578-80.556-69.372 4.066-20.132 47.337-34.16 83.628-34.16 6.638 0 12.703.516 17.537 1.493a51.7 51.7 0 0 1 33.058 22.23c7.688 11.583 10.4 25.466 7.658 39.094z"/></svg>