<svg xmlns="http://www.w3.org/2000/svg" width="612" height="531" viewBox="0 0 611.5 531"><path d="M73.12 152.057c44.24 15.255 102.885 23.657 165.132 23.657s120.893-8.4 165.134-23.657C450.536 135.8 476.5 112.984 476.5 87.82s-25.967-47.976-73.118-64.236C359.144 8.33 300.5-.073 238.25-.073S117.358 8.33 73.12 23.584C25.967 39.842 0 62.657 0 87.82s25.967 47.975 73.12 64.237zm427.118 136.1H433.69c-9.667.01-17.5 7.845-17.512 17.512v3.5c.012 9.667 7.845 17.5 17.512 17.512h66.546c9.667-.01 17.5-7.845 17.512-17.512v-3.5c-.01-9.668-7.844-17.504-17.512-17.516zM612 304.612c0-79.156-64.4-143.555-143.555-143.555-43.31-.001-84.3 19.585-111.5 53.282-36.64 6.688-77.034 10.185-118.682 10.185-68.23 0-133.068-9.4-182.573-26.47-14.73-5.08-18.17-6.492-23.067-9-5.257-2.75-10.153-4.143-14.55-4.143-7.923-.252-14.963 5.018-16.955 12.7A36.91 36.91 0 0 0 0 206.537c0 25.164 25.97 47.977 73.12 64.236 44.24 15.255 102.885 23.658 165.132 23.658a637.32 637.32 0 0 0 87.563-5.9 141.83 141.83 0 0 0 2.653 47.816c-29.914 3.885-60.05 5.805-90.216 5.747-68.225 0-133.064-9.4-182.575-26.473-14.728-5.08-18.167-6.5-23.065-9-5.26-2.75-10.154-4.144-14.553-4.144-7.925-.252-14.967 5.02-16.958 12.696-.728 2.92-1.097 5.918-1.1 8.927 0 25.164 25.97 47.976 73.12 64.238C117.36 403.6 176 412 238.25 412c43.475 0 86.167-4.25 122.933-12.114 14.37 16.182 32.197 28.92 52.162 37.272-48.476 15.5-110.24 24.013-175.095 24.013-68.225 0-133.064-9.4-182.573-26.473-14.73-5.08-18.17-6.492-23.067-9-5.26-2.75-10.154-4.145-14.553-4.145-7.924-.25-14.966 5.02-16.958 12.693A37.1 37.1 0 0 0 0 443.18c0 25.163 25.967 47.976 73.12 64.236 44.24 15.255 102.885 23.657 165.132 23.657s120.893-8.4 165.134-23.657c44.15-15.226 69.726-36.2 72.8-59.463C551.756 443.915 612 381.17 612 304.612zm-143.555 91.02c-50.27.001-91.02-40.75-91.02-91.02s40.75-91.02 91.02-91.02 91.02 40.75 91.02 91.02c-.055 50.246-40.773 90.965-91.02 91.02z" fill="#fff" fill-rule="evenodd"/></svg>