<svg xmlns="http://www.w3.org/2000/svg" width="497.938" height="512" viewBox="0 0 497.938 512">
  <defs>
    <style>
      .cls-1 {
        fill: #fff;
        fill-rule: evenodd;
      }
    </style>
  </defs>
  <path class="cls-1" d="M390.626,78.378A12.356,12.356,0,0,0,402.978,66.02V27.027A27.044,27.044,0,0,0,375.978,0h-261.3a12.354,12.354,0,0,0-8.734,3.62L3.618,106A12.363,12.363,0,0,0,0,114.733V484.972A27.053,27.053,0,0,0,27.013,512H375.977a27.044,27.044,0,0,0,27-27.027V296.289a12.351,12.351,0,1,0-24.7,0V484.973a2.307,2.307,0,0,1-2.3,2.311H27.014a2.313,2.313,0,0,1-2.31-2.311V127.093h75.321a27.04,27.04,0,0,0,27-27.017V24.716h248.95a2.306,2.306,0,0,1,2.3,2.311V66.02A12.356,12.356,0,0,0,390.626,78.378Zm-288.3,21.7a2.3,2.3,0,0,1-2.3,2.3H42.178L102.324,42.2v57.879ZM485.706,100.4L471.172,85.857a41.829,41.829,0,0,0-59.107,0L296.7,201.28H96.6A12.358,12.358,0,0,0,96.6,226H272l-74.341,74.379H96.6a12.358,12.358,0,0,0,0,24.716h76.353l-0.2.2a12.359,12.359,0,0,0-3.167,5.433L150.509,399.47H96.6a12.358,12.358,0,0,0,0,24.716h63.3s2.707-.306,3.1-0.41c0.065-.017,77.957-21.642,77.957-21.642a12.347,12.347,0,0,0,5.43-3.169L485.707,159.53A41.879,41.879,0,0,0,485.706,100.4ZM177.644,394.073l10.082-36.326,26.227,26.24Zm60.015-21.321-38.7-38.721L396.5,136.383l38.7,38.721Zm230.578-230.7-15.563,15.571-38.7-38.722,15.563-15.571a17.1,17.1,0,0,1,24.168,0l14.534,14.541A17.125,17.125,0,0,1,468.237,142.054Z"/>
</svg>
