<svg xmlns="http://www.w3.org/2000/svg" width="555.969" height="611.5" viewBox="0 0 555.969 611.5">
  <defs>
    <style>
      .cls-1 {
        fill: #fff;
        fill-rule: evenodd;
      }
    </style>
  </defs>
  <path id="Forma_1" data-name="Forma 1" class="cls-1" d="M557.975,189.04A40.959,40.959,0,0,0,517.1,148.09H42.3A41.16,41.16,0,0,0,1.025,189.04V570.378c0,22.833,18.9,42.122,41.276,42.122H517.1c22.539,0,40.875-18.9,40.875-42.122V483.543c0-10.16-6.846-25.275-25.706-25.275H384.035c-6.726,0-12.852-5.811-12.852-12.193V313.343c0-6.809,6.67-11.023,12.852-11.023H532.269c18.86,0,25.706-14.861,25.706-24.85V189.04ZM417.52,331.455a13.793,13.793,0,0,0-13.778,13.777v68.412a13.794,13.794,0,0,0,13.778,13.778H542.482a13.794,13.794,0,0,0,13.779-13.778V345.232a13.793,13.793,0,0,0-13.779-13.777H417.52Zm52.159,47.983A26.667,26.667,0,1,1,496.346,406.1,26.7,26.7,0,0,1,469.679,379.438ZM45,108.675H508.862c13.125,0,23.407-10.537,23.407-23.991V22.25c0-12.4-9.092-21.75-21.147-21.75a23.643,23.643,0,0,0-3.71.3L43.307,74.91c-10.777,1.721-22.375,8.1-22.375,18.043C20.932,102.211,30.828,108.675,45,108.675Z" transform="translate(-1.031 -0.5)"/>
</svg>
