<svg xmlns="http://www.w3.org/2000/svg" width="611.5" height="531" viewBox="0 0 611.5 531">
  <defs>
    <style>
      .cls-1 {
        fill: #fff;
        fill-rule: evenodd;
      }
    </style>
  </defs>
  <path id="Forma_1" data-name="Forma 1" class="cls-1" d="M73.619,152.057c44.241,15.255,102.885,23.657,165.132,23.657s120.893-8.4,165.134-23.657C451.036,135.8,477,112.984,477,87.82s-25.967-47.976-73.118-64.236C359.644,8.329,301-.073,238.751-0.073S117.858,8.329,73.619,23.584C26.467,39.842.5,62.657,0.5,87.82S26.467,135.795,73.619,152.057Zm427.118,136.1H434.191a17.532,17.532,0,0,0-17.512,17.512v3.5a17.533,17.533,0,0,0,17.512,17.512h66.546a17.532,17.532,0,0,0,17.512-17.512v-3.5A17.533,17.533,0,0,0,500.737,288.153ZM612.5,304.612c0-79.156-64.4-143.555-143.555-143.555a143.323,143.323,0,0,0-111.51,53.282c-36.641,6.688-77.034,10.185-118.682,10.185-68.229,0-133.068-9.4-182.573-26.471-14.731-5.08-18.169-6.492-23.067-9-5.257-2.749-10.153-4.143-14.551-4.143A16.961,16.961,0,0,0,1.607,197.6,36.909,36.909,0,0,0,.5,206.537c0,25.164,25.969,47.977,73.119,64.236,44.241,15.255,102.885,23.658,165.132,23.658a637.318,637.318,0,0,0,87.563-5.9,141.832,141.832,0,0,0,2.653,47.816,690.123,690.123,0,0,1-90.216,5.747c-68.225,0-133.064-9.4-182.575-26.473-14.728-5.079-18.167-6.49-23.065-9-5.259-2.749-10.154-4.144-14.553-4.144A16.963,16.963,0,0,0,1.6,315.173,37.043,37.043,0,0,0,.5,324.1c0,25.164,25.969,47.976,73.119,64.238C117.86,403.6,176.5,412,238.751,412c43.475,0,86.167-4.25,122.933-12.114a144.145,144.145,0,0,0,52.162,37.272c-48.476,15.5-110.24,24.013-175.095,24.013-68.225,0-133.064-9.4-182.573-26.473-14.729-5.081-18.169-6.492-23.067-9-5.259-2.749-10.154-4.145-14.553-4.145A16.965,16.965,0,0,0,1.6,434.246,37.1,37.1,0,0,0,.5,443.18c0,25.163,25.967,47.976,73.119,64.236,44.241,15.255,102.885,23.657,165.132,23.657s120.893-8.4,165.134-23.657c44.151-15.226,69.726-36.2,72.8-59.463C552.256,443.915,612.5,381.171,612.5,304.612ZM468.945,395.631a91.02,91.02,0,1,1,91.019-91.021A91.121,91.121,0,0,1,468.945,395.631Z" transform="translate(-0.5)"/>
</svg>
