<?xml version="1.0" encoding="iso-8859-1"?>
<!-- Generator: Adobe Illustrator 19.0.0, SVG Export Plug-In . SVG Version: 6.00 Build 0)  -->
<svg xmlns="http://www.w3.org/2000/svg" xmlns:xlink="http://www.w3.org/1999/xlink" version="1.1" id="Layer_1" x="0px" y="0px" viewBox="0 0 507.458 507.458" style="enable-background:new 0 0 507.458 507.458;" xml:space="preserve" width="512" height="512">
<g>
	<path d="M503.842,230.376l-45.681-42.579V64.63h9.978c4.143,0,7.5-3.358,7.5-7.5V9.958c0-4.142-3.357-7.5-7.5-7.5H339.125   c-4.143,0-7.5,3.358-7.5,7.5V57.13c0,4.142,3.357,7.5,7.5,7.5h9.977v21.514l-90.26-84.13c-2.879-2.685-7.348-2.685-10.227,0   l-245,228.363c-2.255,2.101-2.994,5.367-1.865,8.234s3.897,4.752,6.979,4.752h47.237v106.072c0,4.142,3.357,7.5,7.5,7.5   s7.5-3.358,7.5-7.5V243.363h365.524v249.095H215.672V319.491c0-4.142-3.357-7.5-7.5-7.5H106.526c-4.143,0-7.5,3.358-7.5,7.5   v172.967h-28.06V379.436c0-4.142-3.357-7.5-7.5-7.5s-7.5,3.358-7.5,7.5v120.521c0,4.142,3.357,7.5,7.5,7.5h380.524   c4.143,0,7.5-3.358,7.5-7.5V243.363h47.238c3.081,0,5.85-1.885,6.979-4.752S506.097,232.477,503.842,230.376z M114.026,492.458   V326.991h86.646v165.467H114.026z M346.625,17.458h114.014V49.63h-9.929c-0.016,0-0.032-0.002-0.048-0.002h-94.06   c-0.016,0-0.032,0.002-0.048,0.002h-9.928V17.458z M364.102,64.63h79.06v109.187l-79.06-73.691V64.63z M443.991,228.363H63.466   H27.775l225.954-210.61l225.954,210.61H443.991z"/>
	<path d="M183.172,336.991h-51.646c-4.143,0-7.5,3.358-7.5,7.5v130.467c0,4.142,3.357,7.5,7.5,7.5h51.646c4.143,0,7.5-3.358,7.5-7.5   V344.491C190.672,340.349,187.315,336.991,183.172,336.991z M175.672,351.991v74.689h-36.646V411.37h8.209   c4.143,0,7.5-3.358,7.5-7.5s-3.357-7.5-7.5-7.5h-8.209v-44.38H175.672z M139.026,467.458V441.68h36.646v25.778H139.026z"/>
	<path d="M406.614,450.364c4.143,0,7.5-3.358,7.5-7.5V319.491c0-4.142-3.357-7.5-7.5-7.5H247.331c-4.143,0-7.5,3.358-7.5,7.5   v123.373c0,4.142,3.357,7.5,7.5,7.5H406.614z M399.114,435.364h-45.32V326.991h45.32V435.364z M254.831,326.991h83.962v108.373   h-83.962V326.991z"/>
	<path d="M75.402,200.907c0,4.142,3.357,7.5,7.5,7.5h341.65c4.143,0,7.5-3.358,7.5-7.5s-3.357-7.5-7.5-7.5H82.902   C78.759,193.407,75.402,196.765,75.402,200.907z"/>
	<path d="M123.102,170.937h158.33c4.143,0,7.5-3.358,7.5-7.5s-3.357-7.5-7.5-7.5h-158.33c-4.143,0-7.5,3.358-7.5,7.5   S118.959,170.937,123.102,170.937z"/>
	<path d="M303.934,163.437c0,4.142,3.357,7.5,7.5,7.5h72.928c4.143,0,7.5-3.358,7.5-7.5s-3.357-7.5-7.5-7.5h-72.928   C307.291,155.937,303.934,159.295,303.934,163.437z"/>
	<path d="M155.802,125.967c0,4.142,3.357,7.5,7.5,7.5h180.859c4.143,0,7.5-3.358,7.5-7.5s-3.357-7.5-7.5-7.5H163.302   C159.159,118.467,155.802,121.825,155.802,125.967z"/>
	<path d="M196.001,88.497c0,4.142,3.357,7.5,7.5,7.5h100.46c4.143,0,7.5-3.358,7.5-7.5s-3.357-7.5-7.5-7.5h-100.46   C199.359,80.997,196.001,84.355,196.001,88.497z"/>
	<path d="M236.201,51.027c0,4.142,3.357,7.5,7.5,7.5h20.061c4.143,0,7.5-3.358,7.5-7.5s-3.357-7.5-7.5-7.5h-20.061   C239.559,43.527,236.201,46.885,236.201,51.027z"/>
</g>















</svg>
