<svg xmlns="http://www.w3.org/2000/svg" width="612" height="612" viewBox="0 0 612 612">
  <defs>
    <style>
      .cls-1 {
        fill-rule: evenodd;
      }
    </style>
  </defs>
  <path id="Forma_1" data-name="Forma 1" class="cls-1" d="M394.027,315.781a13.507,13.507,0,0,1,0-19.562L603.616,86.63A30.188,30.188,0,0,0,612,67.069a30.188,30.188,0,0,0-8.384-19.562L564.493,8.384A30.186,30.186,0,0,0,544.931,0c-8.383,0-13.972,2.794-19.561,8.384L315.781,217.973a13.507,13.507,0,0,1-19.562,0L86.63,8.384A30.187,30.187,0,0,0,67.069,0,30.187,30.187,0,0,0,47.507,8.384L8.384,47.507A30.188,30.188,0,0,0,0,67.069,30.188,30.188,0,0,0,8.384,86.63L217.973,296.219a13.507,13.507,0,0,1,0,19.562L8.384,525.37a27.013,27.013,0,0,0,0,39.123l39.123,39.123A30.188,30.188,0,0,0,67.069,612a30.188,30.188,0,0,0,19.562-8.384L296.219,394.027a13.507,13.507,0,0,1,19.562,0L525.37,603.616a27.012,27.012,0,0,0,39.123,0l39.123-39.123a27.012,27.012,0,0,0,0-39.123Z"/>
</svg>
