<svg xmlns="http://www.w3.org/2000/svg" width="741" height="800" viewBox="0 0 741 800">
  <defs>
    <style>
      .cls-1 {
        fill-rule: evenodd;
      }
    </style>
  </defs>
  <path class="cls-1" d="M358.311,754.159H149.6A102.868,102.868,0,0,1,46.853,651.443V148.557A102.868,102.868,0,0,1,149.6,45.84H361.707a22.92,22.92,0,1,0,0-45.84H149.6C67.571,0,1,66.723,1,148.557V651.443C1,733.446,67.741,800,149.6,800H358.311A22.921,22.921,0,1,0,358.311,754.159ZM736,383.871L590.29,238.2a22.933,22.933,0,0,0-32.436,32.428L664.5,377.249H199.355a22.921,22.921,0,1,0,0,45.841H664.5L557.854,529.711a23.006,23.006,0,0,0,16.133,39.22,22.372,22.372,0,0,0,16.133-6.791L735.829,416.469A22.9,22.9,0,0,0,736,383.871Z" transform="translate(-1)"/>
</svg>
